<svg xmlns="http://www.w3.org/2000/svg"  viewBox="0 0 32 32" width="50px" height="50px" fill-rule="evenodd" clip-rule="evenodd" baseProfile="basic"><path fill="#91c14b" fill-rule="evenodd" d="M7.997,9.997v-4h2v-2h2	v-2h2v2h4v-2h2v2h2v2h2v4H7.997z" clip-rule="evenodd"/><path fill="#e6e5e5" fill-rule="evenodd" d="M11.996,7.997V5.999	h2.001v1.999H11.996z" clip-rule="evenodd"/><path fill="#e6e5e5" fill-rule="evenodd" d="M17.996,7.996V5.997	h2.001v1.999H17.996z" clip-rule="evenodd"/><path fill="#91c14b" fill-rule="evenodd" d="M4,21.997v-2H1.996	v-6.001h2.003v-1.997h1.999v9.999H4z" clip-rule="evenodd"/><path fill="#91c14b" fill-rule="evenodd" d="M25.996,21.997v-9.999	h2.001v1.997h2v6.001h-1.999v2H25.996z" clip-rule="evenodd"/><path fill="#91c14b" fill-rule="evenodd" d="M7.996,23.997V11.999	h16.001v11.999H7.996z" clip-rule="evenodd"/><path fill="#91c14b" fill-rule="evenodd" d="M9.996,29.999v-8.001	h4.001v8.001H9.996z" clip-rule="evenodd"/><path fill="#91c14b" fill-rule="evenodd" d="M17.996,29.999v-8.001	h4.001v8.001H17.996z" clip-rule="evenodd"/></svg>