<svg xmlns="http://www.w3.org/2000/svg"  viewBox="0 0 32 32" width="50px" height="50px" fill-rule="evenodd" clip-rule="evenodd" baseProfile="basic"><path fill="#589bd4" fill-rule="evenodd" d="M3.003,21.003v-10h2v-4	h2v-2h4v-2h10v2h4v2h2v4h2v10h-2v4h-2v2h-4v2h-10v-2h-4v-2h-2v-4H3.003z" clip-rule="evenodd"/><path fill="#e6e5e5" fill-rule="evenodd" d="M5.003,21.003v-10h2v-4	h4v-2h10v2h4v4h2v10h-2v4h-4v2h-10v-2h-4v-4H5.003z" clip-rule="evenodd"/><path fill="#706d67" fill-rule="evenodd" d="M15.001,7.004v9.999	h2.001V7.004H15.001z" clip-rule="evenodd"/><path fill="#706d67" fill-rule="evenodd" d="M17.003,17.003v2.001	h1.999v-2.001H17.003z" clip-rule="evenodd"/><path fill="#706d67" fill-rule="evenodd" d="M19.003,19.003v2.001	h1.999v-2.001H19.003z" clip-rule="evenodd"/></svg>