<svg xmlns="http://www.w3.org/2000/svg"  viewBox="0 0 32 32" width="50px" height="50px" fill-rule="evenodd" clip-rule="evenodd" baseProfile="basic"><path fill="#fcc201" fill-rule="evenodd" d="M1.997,18.997v-14h28v14	l-2,2h-24L1.997,18.997z" clip-rule="evenodd"/><path fill="#b4252c" fill-rule="evenodd" d="M17.997,16.997h2v-2h2	v-2h2v2h2v2h2v2h2v8h-4l-1-1h-4l-4-4v-4L17.997,16.997z" clip-rule="evenodd"/><path fill="#ef816e" fill-rule="evenodd" d="M1.997,26.997v-8h2v-2h2	v-2h2v-2h2v-2h2v2h2v2h2v2h2v2h2v2h2v2h2v2h2v2H1.997z" clip-rule="evenodd"/><path fill="#ffec8e" fill-rule="evenodd" d="M23.997,6.999v3.999	h3.999V6.999H23.997z" clip-rule="evenodd"/></svg>