<svg xmlns="http://www.w3.org/2000/svg"  viewBox="0 0 32 32" width="50px" height="50px" baseProfile="basic"><polygon fill="#00953f" points="4,22 4,10 6,10 6,8 8,8 8,6 10,6 10,4 22,4 22,6 24,6 24,8 26,8 26,10 28,10 28,22 26,22 26,24 24,24 24,26 22,26 22,28 10,28 10,26 8,26 8,24 6,24 6,22"/><polygon fill="#e6e5e5" points="24,8 24,10 22,10 22,12 20,12 20,14 18,14 18,16 16,16 16,18 14,18 14,16 12,16 12,14 8,14 8,16 10,16 10,18 12,18 12,20 14,20 14,22 16,22 16,20 18,20 18,18 20,18 20,16 22,16 22,14 24,14 24,12 26,12 26,8"/></svg>